<svg width="24" height="24" viewBox="0 0 24 24" fill="none" xmlns="http://www.w3.org/2000/svg">
<g clip-path="url(#clip0_318_162)">
<path fill-rule="evenodd" clip-rule="evenodd" d="M3.09706 1.12844C3.64419 -0.376149 5.77209 -0.376145 6.31922 1.12844L6.84418 2.5721L8.28784 3.09706C9.79243 3.64419 9.79243 5.77209 8.28784 6.31922L6.84418 6.84418L6.31922 8.28784C5.77209 9.79243 3.64419 9.79243 3.09706 8.28784L2.5721 6.84418L1.12844 6.31922C-0.376147 5.77209 -0.376145 3.64419 1.12844 3.09706L2.5721 2.5721L3.09706 1.12844ZM18.0384 3.56086C17.4912 2.05629 15.3633 2.05627 14.8162 3.56086L13.5273 7.1052L9.98301 8.39405C8.47841 8.94117 8.47841 11.0691 9.98301 11.6162L13.5273 12.905L14.8162 16.4494C15.3633 17.9539 17.4912 17.9539 18.0384 16.4494L19.3272 12.905L22.8715 11.6162C24.3761 11.0691 24.3761 8.94117 22.8715 8.39405L19.3272 7.1052L18.0384 3.56086ZM7.78877 12.7731C7.24164 11.2685 5.11375 11.2685 4.56662 12.7731L3.64977 15.2944L1.12844 16.2112C-0.376147 16.7584 -0.376147 18.8863 1.12844 19.4333L3.64977 20.3503L4.56662 22.8715C5.11375 24.3761 7.24164 24.3761 7.78877 22.8715L8.70562 20.3503L11.2269 19.4333C12.7315 18.8863 12.7315 16.7584 11.2269 16.2112L8.70562 15.2944L7.78877 12.7731Z" fill="url(#paint0_linear_318_162)"/>
</g>
<defs>
<linearGradient id="paint0_linear_318_162" x1="12" y1="0" x2="12" y2="24" gradientUnits="userSpaceOnUse">
<stop stop-color="#21D6CC"/>
<stop offset="1" stop-color="#7D21CF"/>
</linearGradient>
<clipPath id="clip0_318_162">
<rect width="24" height="24" fill="white"/>
</clipPath>
</defs>
</svg>
