<svg width="479" height="98" viewBox="0 0 479 98" fill="none" xmlns="http://www.w3.org/2000/svg">
<path d="M0.0400003 96V2.19999H33.54C38.632 2.19999 43.2327 3.47299 47.342 6.019C51.496 8.565 54.779 11.982 57.191 16.27C59.603 20.558 60.809 25.2703 60.809 30.407C60.809 35.6777 59.5583 40.457 57.057 44.745C54.6003 48.9883 51.295 52.383 47.141 54.929C42.987 57.4303 38.4533 58.681 33.54 58.681H16.388V96H0.0400003ZM16.388 42.333H31.798C34.1207 42.333 36.2423 41.7523 38.163 40.591C40.0837 39.4297 41.6023 37.8663 42.719 35.901C43.8803 33.9357 44.461 31.747 44.461 29.335C44.461 26.8783 43.8803 24.6673 42.719 22.702C41.6023 20.7367 40.0837 19.1733 38.163 18.012C36.2423 16.8507 34.1207 16.27 31.798 16.27H16.388V42.333ZM108.005 97.742C102.824 97.742 97.8436 96.938 93.0643 95.33C88.3296 93.6773 84.1756 91.3323 80.6023 88.295C77.0289 85.213 74.4606 81.528 72.8973 77.24L88.2403 71.612C88.8656 73.3987 90.1386 75.029 92.0593 76.503C93.9799 77.977 96.3249 79.1607 99.0943 80.054C101.864 80.9473 104.834 81.394 108.005 81.394C111.266 81.394 114.303 80.9027 117.117 79.92C119.976 78.8927 122.276 77.4857 124.018 75.699C125.76 73.8677 126.631 71.746 126.631 69.334C126.631 66.8773 125.716 64.8673 123.884 63.304C122.053 61.696 119.708 60.423 116.849 59.485C113.991 58.547 111.043 57.8323 108.005 57.341C101.35 56.3137 95.3869 54.728 90.1163 52.584C84.8456 50.44 80.6693 47.4697 77.5873 43.673C74.5499 39.8763 73.0313 34.963 73.0313 28.933C73.0313 23.2603 74.6616 18.3023 77.9223 14.059C81.1829 9.81566 85.4709 6.51033 90.7863 4.143C96.1016 1.77566 101.841 0.591998 108.005 0.591998C113.142 0.591998 118.1 1.396 122.879 3.004C127.659 4.61199 131.835 6.95699 135.408 10.039C139.026 13.121 141.617 16.8283 143.18 21.161L127.77 26.722C127.145 24.9353 125.872 23.305 123.951 21.831C122.031 20.357 119.686 19.1957 116.916 18.347C114.147 17.4537 111.177 17.007 108.005 17.007C104.834 16.9623 101.819 17.476 98.9603 18.548C96.1463 19.5753 93.8459 20.9823 92.0593 22.769C90.2726 24.5557 89.3793 26.6103 89.3793 28.933C89.3793 31.9257 90.2056 34.1813 91.8583 35.7C93.5556 37.2187 95.8113 38.3353 98.6253 39.05C101.439 39.72 104.566 40.3453 108.005 40.926C114.259 41.9087 120.043 43.5613 125.358 45.884C130.674 48.2067 134.939 51.311 138.155 55.197C141.371 59.0383 142.979 63.7507 142.979 69.334C142.979 75.0067 141.371 79.987 138.155 84.275C134.939 88.5183 130.674 91.8237 125.358 94.191C120.043 96.5583 114.259 97.742 108.005 97.742ZM210.239 2.19999H229.535L197.308 53.723V96H180.96V53.723L148.733 2.19999H168.029L189.134 35.901L210.239 2.19999Z" fill="#00CE6B"/>
<path d="M238.989 96V2.19999H272.489C277.581 2.19999 282.182 3.47299 286.291 6.019C290.445 8.565 293.728 11.982 296.14 16.27C298.552 20.558 299.758 25.2703 299.758 30.407C299.758 35.6777 298.508 40.457 296.006 44.745C293.55 48.9883 290.244 52.383 286.09 54.929C281.936 57.4303 277.403 58.681 272.489 58.681H255.337V96H238.989ZM255.337 42.333H270.747C273.07 42.333 275.192 41.7523 277.112 40.591C279.033 39.4297 280.552 37.8663 281.668 35.901C282.83 33.9357 283.41 31.747 283.41 29.335C283.41 26.8783 282.83 24.6673 281.668 22.702C280.552 20.7367 279.033 19.1733 277.112 18.012C275.192 16.8507 273.07 16.27 270.747 16.27H255.337V42.333ZM312.009 96V2.19999H347.988C353.08 2.19999 357.68 3.47299 361.79 6.019C365.899 8.565 369.16 11.982 371.572 16.27C373.984 20.5133 375.19 25.2257 375.19 30.407C375.19 34.6503 374.408 38.5587 372.845 42.132C371.326 45.6607 369.182 48.7203 366.413 51.311C363.688 53.9017 360.539 55.867 356.966 57.207L379.411 96H360.584L338.876 58.681H328.357V96H312.009ZM328.357 42.333H346.112C348.434 42.333 350.556 41.7523 352.477 40.591C354.397 39.4297 355.938 37.8663 357.1 35.901C358.261 33.9357 358.842 31.747 358.842 29.335C358.842 26.8783 358.261 24.6673 357.1 22.702C355.938 20.7367 354.397 19.1733 352.477 18.012C350.556 16.8507 348.434 16.27 346.112 16.27H328.357V42.333ZM432.635 97.742C426.292 97.742 420.329 96.4913 414.746 93.99C409.163 91.444 404.249 87.9377 400.006 83.471C395.763 79.0043 392.435 73.8453 390.023 67.994C387.611 62.098 386.405 55.8 386.405 49.1C386.405 42.4 387.611 36.1243 390.023 30.273C392.435 24.377 395.763 19.1957 400.006 14.729C404.249 10.2623 409.163 6.77833 414.746 4.27699C420.329 1.73099 426.292 0.457992 432.635 0.457992C439.022 0.457992 445.008 1.73099 450.591 4.27699C456.174 6.77833 461.088 10.2623 465.331 14.729C469.574 19.1957 472.88 24.377 475.247 30.273C477.659 36.1243 478.865 42.4 478.865 49.1C478.865 55.8 477.659 62.098 475.247 67.994C472.88 73.8453 469.574 79.0043 465.331 83.471C461.088 87.9377 456.174 91.444 450.591 93.99C445.008 96.4913 439.022 97.742 432.635 97.742ZM432.635 81.394C436.744 81.394 440.608 80.5453 444.226 78.848C447.844 77.1507 451.015 74.828 453.74 71.88C456.509 68.8873 458.653 65.448 460.172 61.562C461.735 57.676 462.517 53.522 462.517 49.1C462.517 44.678 461.735 40.524 460.172 36.638C458.609 32.7073 456.442 29.268 453.673 26.32C450.948 23.372 447.777 21.0493 444.159 19.352C440.586 17.6547 436.744 16.806 432.635 16.806C428.526 16.806 424.662 17.6547 421.044 19.352C417.426 21.0493 414.232 23.3943 411.463 26.387C408.738 29.335 406.594 32.752 405.031 36.638C403.512 40.524 402.753 44.678 402.753 49.1C402.753 53.5667 403.535 57.743 405.098 61.629C406.661 65.515 408.805 68.9543 411.53 71.947C414.299 74.895 417.471 77.2177 421.044 78.915C424.662 80.5677 428.526 81.394 432.635 81.394Z" fill="black"/>
</svg>
